<?xml version="1.0" encoding="utf-8"?>
<!-- Generator: Adobe Illustrator 19.0.0, SVG Export Plug-In . SVG Version: 6.00 Build 0)  -->
<svg version="1.1" id="Layer_1" xmlns="http://www.w3.org/2000/svg" xmlns:xlink="http://www.w3.org/1999/xlink" x="0px" y="0px"
	 viewBox="121 -57 542.7 414" style="enable-background:new 121 -57 542.7 414;" xml:space="preserve">
<style type="text/css">
	.st0{fill:#F2644B;}
	.st1{fill:none;stroke:#8E8E8E;stroke-width:5;stroke-linecap:round;stroke-linejoin:round;stroke-miterlimit:10;}
	.st2{fill:#474747;}
	.st3{fill:none;stroke:#3D3D3D;stroke-width:13;stroke-miterlimit:10;}
	.st4{fill:#DBDBDB;}
	.st5{fill:#B4E5B1;}
	.st6{fill:#53CCE0;}
	.st7{fill:#FF7B7B;}
	
		.st8{fill:none;stroke:#686868;stroke-width:2;stroke-linecap:round;stroke-linejoin:round;stroke-miterlimit:10;stroke-dasharray:7;}
	.st9{fill:#4C4C4C;}
	.st10{fill:none;stroke:#55A33B;stroke-width:3;stroke-linecap:round;stroke-linejoin:round;stroke-miterlimit:10;}
	.st11{fill:#FFFFFF;}
	.st12{fill:#2458A6;}
	.st13{fill:none;stroke:#494949;stroke-width:8;stroke-miterlimit:10;}
	.st14{fill:#D4E6FC;}
	.st15{fill:#364299;}
	.st16{fill:#8E8E8E;stroke:#8E8E8E;stroke-width:10;stroke-linecap:round;stroke-miterlimit:10;}
	.st17{fill:#AFAFAF;}
	.st18{fill:#CCCCCC;}
	.st19{fill:none;stroke:#8E8E8E;stroke-width:3;stroke-linecap:round;stroke-linejoin:round;stroke-miterlimit:10;}
	.st20{fill:#007DC2;}
	.st21{fill:#008DD1;}
	.st22{fill:#EAEBEC;}
	.st23{fill:#E34E26;}
	.st24{fill:#F06529;}
	.st25{fill:#EBEAEA;}
</style>
<path id="settings" class="st0" d="M615,261.1c8.1,0.2,14.6,6.8,14.6,14.9c-0.2,8.1-6.8,14.6-14.9,14.6c-3.5,0-6.5-1.3-9.1-3.3
	l0.2,23.7c0.4,0.2,0.8,0.2,1.1,0.3c0.4,0.1,0.7-0.1,1-0.3l4.4-6.3c0.2-0.2,0.4-0.4,0.8-0.4h2.9c0.3,0,0.6,0.2,0.7,0.4l4.6,6.4
	c0.2,0.2,0.6,0.4,0.9,0.4c5.4-0.7,11.1-4.2,12.8-5.2c0.3-0.2,0.4-0.6,0.4-0.9l-1.2-7.5c-0.1-0.3,0.1-0.6,0.2-0.8l2-2.1
	c0.2-0.2,0.6-0.3,0.9-0.3l7.6,1.6c0.4,0.1,0.7-0.1,1-0.3c3.4-4.8,5.2-10.9,5.7-12.9c0.1-0.4-0.1-0.7-0.3-1l-6.6-4.6
	c-0.2-0.2-0.4-0.4-0.4-0.7v-3.1c0-0.3,0.2-0.6,0.4-0.8l6.7-4.2c0.3-0.2,0.6-0.7,0.4-1.1c-2.1-7.6-4.6-11.6-5.5-12.8
	c-0.2-0.3-0.6-0.4-0.9-0.4l-7.3,1.3c-0.3,0.1-0.6-0.1-0.9-0.3l-2.3-2.5c-0.2-0.2-0.2-0.6-0.3-0.9l1.6-6.8c0.1-0.4-0.1-0.8-0.4-1
	c-6.1-3.9-11.3-5.1-13-5.5c-0.3-0.1-0.7,0.1-0.9,0.4l-4.4,6.1c-0.2,0.2-0.4,0.4-0.7,0.4h-2.8c-0.3,0-0.6-0.2-0.8-0.4l-4.6-6.4
	c-0.2-0.3-0.6-0.4-0.9-0.4c-0.7,0.1-1.5,0.3-2.1,0.4l0.2,26C608.1,262.4,611.4,261,615,261.1z"/>
<g>
	<path class="st1" d="M370.9,93.5h-2.6v-8.1h2.6c1.6,0,3.1-1,3.7-2.5v-0.1c0.6-1.5,0.3-3.2-0.9-4.4l-1.8-1.8l5.7-5.7l1.8,1.8
		c1.2,1.2,2.9,1.5,4.4,0.9h0.1c1.5-0.6,2.5-2.1,2.5-3.7v-2.6h8.1V70c0,1.6,1,3.1,2.5,3.7h0.1c1.5,0.6,3.2,0.3,4.4-0.9l1.8-1.8
		l5.7,5.7l-1.8,1.8c-1.2,1.2-1.5,2.9-0.9,4.4V83c0.6,1.5,2.1,2.5,3.7,2.5h2.6v8.1H410c-1.6,0-3.1,1-3.7,2.5v0.1
		c-0.6,1.5-0.3,3.2,0.9,4.4l1.8,1.8l-5.7,5.7l-1.8-1.8c-1.2-1.2-2.9-1.5-4.4-0.9H397c-1.5,0.6-2.5,2.1-2.5,3.7v2.6h-8.1v-2.6
		c0-1.6-1-3.1-2.5-3.7h-0.1c-1.5-0.6-3.2-0.3-4.4,0.9l-1.8,1.8l-5.7-5.7l1.8-1.8c1.2-1.2,1.5-2.9,0.9-4.4v-0.1
		C374,94.5,372.5,93.5,370.9,93.5z"/>
	<path class="st1" d="M397.5,89.5c0,0.6-0.1,1.2-0.2,1.8c-0.2,0.6-0.4,1.2-0.7,1.7c-0.6,1.1-1.5,2-2.6,2.6c-0.5,0.3-1.1,0.5-1.7,0.7
		s-1.2,0.2-1.8,0.2s-1.2-0.1-1.8-0.2c-0.6-0.2-1.2-0.4-1.7-0.7c-1.1-0.6-2-1.5-2.6-2.6c-0.3-0.5-0.5-1.1-0.7-1.7s-0.2-1.2-0.2-1.8
		c0-0.6,0.1-1.2,0.2-1.8c0.2-0.6,0.4-1.2,0.7-1.7c0.6-1.1,1.5-2,2.6-2.6c0.5-0.3,1.1-0.5,1.7-0.7s1.2-0.2,1.8-0.2s1.2,0.1,1.8,0.2
		c0.6,0.2,1.2,0.4,1.7,0.7c1.1,0.6,2,1.5,2.6,2.6c0.3,0.5,0.5,1.1,0.7,1.7C397.4,88.3,397.5,88.9,397.5,89.5z"/>
</g>
<g id="laptop">
	<rect x="151.6" y="70.2" class="st2" width="290.4" height="219.3"/>
	<g id="XMLID_1_">
		<path class="st3" d="M442.1,289.3H156.8c-4.7,0-8.6-4.4-8.6-9.8V77.8c0-6,4.3-10.9,9.5-10.9h274.7c5.3,0,9.5,4.9,9.5,10.9
			L442.1,289.3L442.1,289.3z"/>
	</g>
	<g id="line">
		<rect x="168.1" y="94.2" class="st4" width="35.3" height="5.3"/>
		<rect x="206.5" y="94.2" class="st5" width="156.6" height="5.3"/>
		<rect x="366.8" y="94.2" class="st6" width="35.3" height="5.3"/>
		<rect x="168.1" y="108.1" class="st7" width="39" height="5.3"/>
		<rect x="210.6" y="108.1" class="st5" width="173" height="5.3"/>
		<rect x="387.7" y="108.1" class="st6" width="39" height="5.3"/>
		<rect x="168.1" y="123.1" class="st4" width="35.3" height="5.3"/>
		<rect x="206.5" y="123.1" class="st5" width="156.6" height="5.3"/>
		<rect x="366.8" y="123.1" class="st6" width="35.3" height="5.3"/>
	</g>
	<g id="line_1_">
		<rect x="168.1" y="216.9" class="st7" width="39" height="5.3"/>
		<rect x="210.6" y="216.9" class="st5" width="95.1" height="5.3"/>
		<rect x="308" y="216.9" class="st6" width="21.4" height="5.3"/>
		<rect x="168.1" y="231.8" class="st4" width="35.3" height="5.3"/>
		<rect x="206.5" y="231.8" class="st5" width="156.6" height="5.3"/>
		<rect x="366.8" y="231.8" class="st6" width="35.3" height="5.3"/>
		<rect x="168.1" y="246.8" class="st4" width="35.3" height="5.3"/>
		<rect x="206.5" y="246.8" class="st5" width="156.6" height="5.3"/>
		<rect x="366.8" y="246.8" class="st6" width="35.3" height="5.3"/>
		<rect x="168.1" y="260.7" class="st7" width="39" height="5.3"/>
		<rect x="210.6" y="260.7" class="st5" width="189.3" height="5.3"/>
	</g>
</g>
<polyline class="st8" points="232.5,-10 177.7,-10 177.7,60.5 "/>
<path class="st9" d="M316.4-21.6c0.7-1.4,1-3.1,1-4.8c0-7.4-6.8-13.4-15-13.4c-3.1,0-6,0.8-8.3,2.2c-4.3-6.6-12.4-11.2-21.6-11.2
	c-13.8,0-25,10-25,22.3c0,0.4,0,0.8,0,1.2c-8.7,2.7-15,10.2-15,19c0,11.1,10,20.1,22.5,20.1h57.6c11.1,0,20.1-7.9,20.1-17.8
	C332.3-12.8,325.5-19.9,316.4-21.6z"/>
<g id="globe_3_">
	<circle class="st10" cx="375.1" cy="31.1" r="17.3"/>
	<path class="st10" d="M360.6,40.8c3.1-1.9,25.6-1.9,28.7,0"/>
	<path class="st10" d="M360.1,22.5c3,2,27.1,2,30.1,0"/>
	<path class="st10" d="M383.4,31.1c0,9.6-6,17.3-8.3,17.3s-8.3-7.8-8.3-17.3s6-17.3,8.3-17.3S383.4,21.6,383.4,31.1z"/>
	<line class="st10" x1="357.8" y1="31.9" x2="392.4" y2="31.9"/>
</g>
<polyline class="st8" points="605.4,283.2 605.4,306.3 581,306.3 "/>
<g id="back_screen_1_">
	<rect x="402.9" y="149.4" class="st11" width="206.5" height="187"/>
	<rect x="398.1" y="146.6" class="st12" width="211.3" height="35.8"/>
	<path class="st13" d="M606,336.5H402.9c-2,0-3.6-1.5-3.6-3.6V148c0-2,1.5-3.6,3.6-3.6H606c2,0,3.6,1.5,3.6,3.6v184.9
		C609.6,334.9,607.9,336.5,606,336.5z"/>
	<ellipse class="st11" cx="424" cy="163.1" rx="5" ry="4.8"/>
	<ellipse class="st11" cx="442" cy="163.1" rx="5" ry="4.8"/>
	<ellipse class="st11" cx="459" cy="163.1" rx="5" ry="4.8"/>
	<g>
		<rect x="413.6" y="199.4" class="st14" width="116.4" height="8.6"/>
		<rect x="413.6" y="214.9" class="st14" width="116.4" height="8.6"/>
		<rect x="413.6" y="240.5" class="st14" width="116.4" height="78.3"/>
		<rect x="538.6" y="198.7" class="st14" width="57.1" height="120.2"/>
	</g>
</g>
<g id="Php_icon">
	<g id="XMLID_24_">
		<path id="XMLID_30_" class="st15" d="M447.9,274.3c2.1,0,3.5,0.3,4.1,1.2c0.6,0.8,0.9,2.1,0.5,4c-0.3,2-1.1,3.4-2.3,4.1
			c-1.1,0.8-2.7,1.2-5,1.2h-3.4l2-10.5L447.9,274.3L447.9,274.3z M434.5,295.7h5.5l1.4-6.7h4.7c2.1,0,3.8-0.3,5.2-0.6
			c1.4-0.3,2.6-1.2,3.7-2.3c0.9-0.8,1.7-1.8,2.3-2.7c0.6-1.1,0.9-2.1,1.2-3.4c0.6-2.9,0.2-5.3-1.4-7c-1.5-1.7-3.8-2.6-7-2.6h-10.7
			L434.5,295.7z"/>
		<path id="XMLID_26_" class="st15" d="M462.3,263.7h5.5l-1.4,6.7h4.9c3,0,5.2,0.5,6.2,1.7c1.2,1.1,1.5,2.7,1.1,5.2l-2.3,11.7h-5.6
			l2.1-11.1c0.3-1.2,0.2-2.1-0.3-2.6s-1.4-0.6-2.7-0.6h-4.4l-2.9,14.5H457L462.3,263.7z"/>
		<path id="XMLID_25_" class="st15" d="M490.8,274.3c2.1,0,3.5,0.3,4.1,1.2c0.6,0.8,0.9,2.1,0.5,4c-0.3,2-1.1,3.4-2.3,4.1
			c-1.1,0.8-2.7,1.2-5,1.2h-3.4l2-10.5L490.8,274.3L490.8,274.3z M477.4,295.7h5.5l1.4-6.7h4.7c2.1,0,3.8-0.3,5.2-0.6
			c1.4-0.5,2.6-1.2,3.7-2.3c0.9-0.8,1.7-1.8,2.3-2.7c0.6-1.1,0.9-2.1,1.2-3.4c0.6-2.9,0.2-5.3-1.4-7c-1.5-1.7-3.8-2.6-7-2.6h-10.7
			L477.4,295.7z"/>
	</g>
</g>
<polyline class="st8" points="241.5,294.8 241.5,314.5 395,314.5 "/>
<g id="databse">
	<line class="st16" x1="546.5" y1="89.5" x2="546.5" y2="123.1"/>
	<line class="st16" x1="512" y1="123" x2="580.5" y2="124"/>
	<g id="db1">
		<path class="st17" d="M614.3,20.9H477.5c-2.3,0-4.2-1.9-4.2-4.2V-0.8c0-2.3,1.9-4.2,4.2-4.2h136.8c2.3,0,4.2,1.9,4.2,4.2v17.5
			C618.5,19,616.6,20.9,614.3,20.9z"/>
		<circle class="st11" cx="569.8" cy="7.2" r="4.3"/>
		<circle class="st11" cx="585.3" cy="7.2" r="4.3"/>
		<circle class="st0" cx="601.2" cy="7.2" r="4.3"/>
	</g>
	<g id="db1_1_">
		<path class="st17" d="M614.3,54.7H477.5c-2.3,0-4.2-1.9-4.2-4.2V33c0-2.3,1.9-4.2,4.2-4.2h136.8c2.3,0,4.2,1.9,4.2,4.2v17.5
			C618.5,52.8,616.6,54.7,614.3,54.7z"/>
		<circle class="st11" cx="569.8" cy="41" r="4.3"/>
		<circle class="st11" cx="585.3" cy="41" r="4.3"/>
		<circle class="st0" cx="601.2" cy="41" r="4.3"/>
	</g>
	<g id="db1_2_">
		<path class="st17" d="M614.3,89.5H477.5c-2.3,0-4.2-1.9-4.2-4.2V67.8c0-2.3,1.9-4.2,4.2-4.2h136.8c2.3,0,4.2,1.9,4.2,4.2v17.5
			C618.5,87.6,616.6,89.5,614.3,89.5z"/>
		<circle class="st11" cx="569.8" cy="75.8" r="4.3"/>
		<circle class="st11" cx="585.3" cy="75.8" r="4.3"/>
		<circle class="st0" cx="601.2" cy="75.8" r="4.3"/>
	</g>
</g>
<path class="st18" d="M551.4,129.4h-9.7c-1.7,0-3.1-1.4-3.1-3.1v-8.8c0-1.7,1.4-3.1,3.1-3.1h9.7c1.7,0,3.1,1.4,3.1,3.1v8.8
	C554.5,128,553.1,129.4,551.4,129.4z"/>
<polyline class="st8" points="618.5,41 628.5,41 628.5,205.4 613.3,205.4 "/>
<g>
	<path class="st11" d="M183.3,147l0,2.9h-9.5v5.5h8.6v2.8h-8.6v7.7h-3.2V147H183.3z"/>
	<path class="st11" d="M199,151.5v14.4h-3.1v-2.8c-1,2-2.8,2.9-5.1,2.9c-3.3,0-5.3-2.1-5.3-5.5v-8.9h3.1v8.1c0,2.2,1.3,3.5,3.3,3.5
		c2.5-0.1,3.9-2,3.9-4.5v-7.1H199z"/>
	<path class="st11" d="M206.8,145.9v20h-3.1v-20H206.8z"/>
	<path class="st11" d="M214.8,145.9v20h-3.1v-20H214.8z"/>
	<path class="st11" d="M233.7,149.9c-1.9,0-3.1,0.7-3.1,2c0,4.1,10.2,1.9,10.2,8.7c0,3.4-3,5.5-7.1,5.5c-3,0-5.8-1.2-7.7-3l1.4-2.8
		c1.9,1.8,4.4,2.8,6.4,2.8c2.2,0,3.5-0.8,3.5-2.3c0-4.2-10.2-1.9-10.2-8.6c0-3.2,2.8-5.3,6.9-5.3c2.5,0,4.9,0.8,6.6,1.9l-1.3,2.8
		C237.2,150.4,235.2,149.9,233.7,149.9z"/>
	<path class="st11" d="M252.5,165c-1.1,0.7-2.3,1.1-3.5,1.1c-2.2,0-4-1.2-4-4.2v-7.5h-2v-2.3h2v-3.9h3.1v3.9h4.2v2.3H248v6.9
		c0,1.5,0.6,1.9,1.5,1.9c0.6,0,1.3-0.2,2.2-0.6L252.5,165z"/>
	<path class="st11" d="M264,165.9v-1.8c-1,1.3-2.7,1.9-4.8,1.9c-3.1,0-5-1.9-5-4.5c0-2.6,2-4.3,5.4-4.3h4.3v-0.4
		c0-1.8-1.2-2.9-3.4-2.9c-1.4,0-2.8,0.5-4.2,1.5l-1.3-2.2c2-1.2,3.5-1.8,6.2-1.8c3.7,0,5.8,1.9,5.8,5l0,9.4H264z M263.9,160.9v-1.3
		h-3.9c-2,0-3,0.5-3,1.9c0,1.3,1.1,2.1,2.8,2.1C262.1,163.6,263.8,162.4,263.9,160.9z"/>
	<path class="st11" d="M277.2,154.2c-2.5,0-4.3,1.9-4.3,4.6c0,2.7,1.8,4.6,4.3,4.6c1.8,0,3.3-0.6,4.2-1.7l1.7,1.7
		c-1.3,1.7-3.4,2.7-6.1,2.7c-4.3,0-7.2-2.9-7.2-7.3c0-4.3,3-7.3,7.2-7.3c2.6,0,4.6,0.8,5.9,2.3l-1.7,2
		C280.3,154.8,278.9,154.1,277.2,154.2z"/>
	<path class="st11" d="M292.1,159.3l-2.4,2.6v4h-3.1v-20h3.1V158l6.3-6.4h3.6l-5.3,5.6l5.7,8.8h-3.7L292.1,159.3z"/>
	<path class="st11" d="M188.1,188.9c0,5.5-4.1,9.4-9.9,9.4h-7.7v-18.9h7.7C184,179.4,188.1,183.4,188.1,188.9z M184.9,188.9
		c0-3.9-2.9-6.6-6.6-6.6h-4.5v13.2h4.6C182.1,195.4,184.9,192.7,184.9,188.9z"/>
	<path class="st11" d="M204,192.3h-10.9c0.5,2.2,2.2,3.6,4.5,3.6c1.6,0,3-0.6,4-1.7l1.6,1.8c-1.4,1.5-3.5,2.4-5.9,2.4
		c-4.4,0-7.3-2.9-7.3-7.3c0-4.3,3-7.3,7.3-7.3C202.3,183.8,204.3,187.1,204,192.3z M201.3,190c-0.1-2.3-1.6-3.7-4-3.7
		c-2.3,0-3.9,1.4-4.2,3.7H201.3z"/>
	<path class="st11" d="M207.6,183.9l4,11.3l3.9-11.3h3.1l-5.5,14.4h-3.2l-5.6-14.4H207.6z"/>
	<path class="st11" d="M232.9,192.3h-10.9c0.5,2.2,2.2,3.6,4.5,3.6c1.6,0,3-0.6,4-1.7l1.6,1.8c-1.4,1.5-3.5,2.4-5.9,2.4
		c-4.4,0-7.3-2.9-7.3-7.3c0-4.3,3-7.3,7.3-7.3C231.3,183.8,233.3,187.1,232.9,192.3z M230.2,190c-0.1-2.3-1.6-3.7-4-3.7
		c-2.3,0-3.9,1.4-4.2,3.7H230.2z"/>
	<path class="st11" d="M239.4,178.3v20h-3.1v-20H239.4z"/>
	<path class="st11" d="M257.8,191.1c0,4.3-3,7.3-7.5,7.3c-4.5,0-7.5-3-7.5-7.3c0-4.3,3.1-7.3,7.5-7.3
		C254.7,183.8,257.8,186.8,257.8,191.1z M245.9,191.1c0,2.8,1.8,4.7,4.4,4.7c2.6,0,4.4-1.9,4.4-4.7c0-2.8-1.8-4.7-4.4-4.7
		C247.7,186.5,245.9,188.4,245.9,191.1z"/>
	<path class="st11" d="M276.1,191.2c0,4.3-2.7,7.2-6.8,7.2c-2.3,0-4-0.9-5.1-2.6v7.7h-3.1v-19.6h3.1v2.5c1.1-1.7,2.8-2.6,5-2.6
		C273.3,183.8,276.1,186.8,276.1,191.2z M273,191.1c0-2.7-1.8-4.6-4.4-4.6s-4.4,1.9-4.4,4.6c0,2.8,1.8,4.7,4.4,4.7
		S273,193.8,273,191.1z"/>
	<path class="st11" d="M303.4,189.4v8.9h-3.1v-8.1c0-2.2-1.3-3.5-3.4-3.5c-2.5,0.1-3.9,2-3.9,4.5v7.1h-3.1v-8.1
		c0-2.2-1.3-3.5-3.4-3.5c-2.5,0.1-4,2-4,4.5v7.1h-3.1v-14.4h3.1v2.8c1-2,2.8-2.9,5.2-2.9c2.6,0,4.3,1.3,5,3.5
		c0.9-2.4,2.8-3.5,5.5-3.5C301.4,183.8,303.4,185.9,303.4,189.4z"/>
	<path class="st11" d="M320.2,192.3h-10.9c0.5,2.2,2.2,3.6,4.5,3.6c1.6,0,3-0.6,4-1.7l1.6,1.8c-1.4,1.5-3.5,2.4-5.9,2.4
		c-4.4,0-7.3-2.9-7.3-7.3c0-4.3,3-7.3,7.3-7.3C318.5,183.8,320.5,187.1,320.2,192.3z M317.5,190c-0.1-2.3-1.6-3.7-4-3.7
		c-2.3,0-3.9,1.4-4.2,3.7H317.5z"/>
	<path class="st11" d="M337.1,189.4v8.9H334v-8.1c0-2.2-1.3-3.5-3.5-3.5c-2.4,0-3.9,1.7-4.1,3.9v7.6h-3.1v-14.4h3.1v2.8
		c1-2,2.9-2.9,5.3-2.9C335.1,183.8,337.1,185.9,337.1,189.4z"/>
	<path class="st11" d="M349.4,197.4c-1.1,0.7-2.3,1.1-3.5,1.1c-2.2,0-4-1.2-4-4.2v-7.5h-2v-2.3h2v-3.9h3.1v3.9h4.2v2.3h-4.2v6.9
		c0,1.5,0.6,1.9,1.5,1.9c0.6,0,1.3-0.2,2.2-0.6L349.4,197.4z"/>
</g>
<g>
	<path class="st19" d="M465.5,115.7H464V111h1.5c0.9,0,1.8-0.6,2.2-1.5v-0.1c0.3-0.9,0.2-1.9-0.5-2.6l-1-1l3.3-3.3l1,1
		c0.7,0.7,1.7,0.9,2.6,0.5h0.1c0.9-0.3,1.5-1.2,1.5-2.2v-1.5h4.7v1.6c0,0.9,0.6,1.8,1.5,2.1h0.1c0.9,0.3,1.9,0.2,2.6-0.5l1-1
		l3.3,3.3l-1,1c-0.7,0.7-0.9,1.7-0.5,2.6v0.1c0.3,0.9,1.2,1.5,2.2,1.5h1.5v4.7h-1.5c-0.9,0-1.8,0.6-2.2,1.5v0.1
		c-0.3,0.9-0.2,1.9,0.5,2.6l1,1l-3.3,3.3l-1-1c-0.7-0.7-1.7-0.9-2.6-0.5h-0.1c-0.9,0.3-1.5,1.2-1.5,2.2v1.5h-4.7v-1.5
		c0-0.9-0.6-1.8-1.5-2.2H473c-0.9-0.3-1.9-0.2-2.6,0.5l-1,1l-3.3-3.3l1-1c0.7-0.7,0.9-1.7,0.5-2.6v-0.1
		C467.3,116.3,466.5,115.7,465.5,115.7z"/>
	<path class="st19" d="M481,113.4c0,0.3-0.1,0.7-0.1,1c-0.1,0.3-0.2,0.7-0.4,1c-0.3,0.6-0.9,1.2-1.5,1.5c-0.3,0.2-0.6,0.3-1,0.4
		c-0.3,0.1-0.7,0.1-1,0.1s-0.7-0.1-1-0.1c-0.3-0.1-0.7-0.2-1-0.4c-0.6-0.3-1.2-0.9-1.5-1.5c-0.2-0.3-0.3-0.6-0.4-1
		c-0.1-0.3-0.1-0.7-0.1-1c0-0.3,0.1-0.7,0.1-1c0.1-0.3,0.2-0.7,0.4-1c0.3-0.6,0.9-1.2,1.5-1.5c0.3-0.2,0.6-0.3,1-0.4
		c0.3-0.1,0.7-0.1,1-0.1s0.7,0.1,1,0.1c0.3,0.1,0.7,0.2,1,0.4c0.6,0.3,1.2,0.9,1.5,1.5c0.2,0.3,0.3,0.6,0.4,1
		C480.9,112.7,481,113.1,481,113.4z"/>
</g>
<polyline class="st8" points="332.7,-10 375.1,-10 375.1,13.8 "/>
<line class="st8" x1="375.1" y1="48.4" x2="375" y2="67.3"/>
<polyline class="st8" points="471.7,8 413.6,8 413.6,60.5 "/>
<path id="XMLID_23_" d="M266.8,42.7l2.8-1.7c0.5,1,1,1.8,2.2,1.8c1.1,0,1.8-0.5,1.8-2.2V28.9h3.4v11.7c0,3.6-2.1,5.2-5.1,5.2
	C269.1,45.8,267.6,44.4,266.8,42.7"/>
<path id="XMLID_22_" d="M278.9,42.3l2.8-1.6c0.7,1.2,1.7,2.1,3.4,2.1c1.4,0,2.3-0.7,2.3-1.7c0-1.2-0.9-1.6-2.5-2.3l-0.9-0.3
	c-2.5-1-4.1-2.3-4.1-5.2c0-2.6,1.9-4.5,5-4.5c2.2,0,3.7,0.7,4.9,2.7l-2.7,1.7c-0.6-1-1.2-1.5-2.2-1.5c-1,0-1.7,0.6-1.7,1.5
	c0,1,0.6,1.4,2.1,2.1l0.9,0.3c2.9,1.3,4.6,2.5,4.6,5.4c0,3.1-2.4,4.8-5.7,4.8C282,45.8,279.9,44.3,278.9,42.3"/>
<g>
	<polyline class="st20" points="550.4,215.4 583.9,215.4 580.9,249.5 567.3,253.4 553.2,249.5 	"/>
	<polyline class="st21" points="567.3,218.8 567.3,250.1 578.5,246.9 581,218.8 	"/>
	<polyline class="st22" points="556.4,222.7 557,226.9 567,226.8 557.1,231.1 557.7,235 567.3,235 567.3,222.7 	"/>
	<polyline class="st22" points="562.4,240.4 562,237.2 557.9,237.2 558.5,243.8 567.3,246.2 567.3,246.2 567.3,241.4 	"/>
	<polyline class="st11" points="576.8,230.7 567.7,230.7 577.6,226.8 577.6,222.7 567.3,222.7 567.3,235 572.3,235 571.7,240.6 
		567.3,241.4 567.3,246.2 575.7,243.5 	"/>
</g>
<polygon class="st23" points="554.9,299.1 552.2,268.5 582.1,268.5 579.4,299.1 567.1,302.5 "/>
<polygon class="st24" points="567.1,299.9 577,297.2 579.4,271 567.1,271 "/>
<polygon class="st25" points="567.1,282.3 562.1,282.3 561.8,278.5 567.1,278.5 567.1,274.7 567.1,274.7 557.8,274.7 557.8,275.7 
	558.8,286.1 567.1,286.1 "/>
<polygon class="st25" points="567.1,292.1 567.1,292.1 562.9,290.9 562.7,288 560.6,288 558.9,288 559.4,293.9 567.1,296 567.1,296 
	"/>
<polygon class="st11" points="567.1,282.3 567.1,286.1 571.8,286.1 571.3,290.9 567.1,292.1 567.1,296 574.8,293.9 574.8,293.2 
	575.7,283.3 575.8,282.3 574.8,282.3 "/>
<polygon class="st11" points="567.1,274.7 567.1,277.1 567.1,278.5 567.1,278.5 576.2,278.5 576.2,278.5 576.2,278.5 576.2,277.7 
	576.4,275.7 576.5,274.7 "/>
</svg>
