<?xml version="1.0" encoding="utf-8"?>
<!-- Generator: Adobe Illustrator 19.0.0, SVG Export Plug-In . SVG Version: 6.00 Build 0)  -->
<svg version="1.1" id="Layer_1" xmlns="http://www.w3.org/2000/svg" xmlns:xlink="http://www.w3.org/1999/xlink" x="0px" y="0px"
	 viewBox="0 0 1024 1024" style="enable-background:new 0 0 1024 1024;" xml:space="preserve">
<style type="text/css">
	.st0{fill:#101010;}
	.st1{fill:#2258A6;}
	.st2{fill:#6BA543;}
	.st3{fill:#F2663A;}
	.st4{fill:#F1F2F2;}
	.st5{fill:#FFFFFF;}
	.st6{font-family:'AvenirNextLTPro-Bold';}
	.st7{font-size:37.8003px;}
	.st8{letter-spacing:4.6;}
	.st9{letter-spacing:29.4;}
	.st10{fill:none;stroke:#111111;stroke-width:20;stroke-miterlimit:10;}
	.st11{fill:#E6E7E8;}
	.st12{font-size:90.6796px;}
	.st13{fill:none;stroke:#2459A6;stroke-width:4;stroke-miterlimit:10;}
	.st14{fill:none;stroke:#2459A6;stroke-width:4;stroke-miterlimit:10;stroke-dasharray:6.9346,6.9346;}
	.st15{font-size:75.0288px;}
	.st16{fill:#FFFFFF;stroke:#F26639;stroke-width:6;stroke-miterlimit:10;}
	.st17{display:none;opacity:0.75;}
	.st18{display:inline;fill:#2258A6;}
	.st19{fill:#2E3387;}
</style>
<path id="XMLID_79_" class="st0" d="M902.7,505.3H520.9c-3.7,0-6.8-3-6.8-6.8V240.5c0-3.7,3-6.8,6.8-6.8h381.8c3.7,0,6.8,3,6.8,6.8
	v257.9C909.5,502.2,906.5,505.3,902.7,505.3z"/>
<rect id="XMLID_64_" x="683.7" y="285.8" class="st1" width="161.6" height="5.8"/>
<rect id="XMLID_66_" x="684.1" y="307.8" class="st2" width="45.5" height="5.8"/>
<rect id="XMLID_4_" x="741.8" y="307.8" class="st1" width="103.6" height="5.8"/>
<rect id="XMLID_67_" x="683.7" y="331.1" class="st3" width="161.6" height="5.8"/>
<rect id="XMLID_63_" x="543.5" y="266.4" class="st4" width="80.1" height="133.9"/>
<text id="_x3C___________________x2F__x3E_" transform="matrix(1.2944 0 0 1 646.9561 300.6191)"><tspan x="0" y="0" class="st5 st6 st7">&lt;    </tspan><tspan x="63" y="0" class="st5 st6 st7 st8">	</tspan><tspan x="77.8" y="0" class="st5 st6 st7 st9">	</tspan><tspan x="0" y="45.4" class="st5 st6 st7 st9">				</tspan><tspan x="155.5" y="45.4" class="st5 st6 st7">/&gt;</tspan></text>
<g id="rular">
	<path id="XMLID_36_" class="st3" d="M197.7,636.6h-27.5c-4.6,0-8.3-3.7-8.3-8.3V312.9c0-4.6,3.7-8.3,8.3-8.3h27.5
		c4.6,0,8.3,3.7,8.3,8.3v315.3C206,632.9,202.3,636.6,197.7,636.6z"/>
	<rect id="XMLID_37_" x="177.8" y="334.5" class="st5" width="28.1" height="3.8"/>
	<rect id="XMLID_39_" x="177.8" y="349.7" class="st5" width="28.1" height="3.8"/>
	<rect id="XMLID_52_" x="177.8" y="380" class="st5" width="28.1" height="3.8"/>
	<rect id="XMLID_51_" x="177.8" y="395.3" class="st5" width="28.1" height="3.8"/>
	<rect id="XMLID_40_" x="172.8" y="364.8" class="st5" width="32.7" height="3.8"/>
	<rect id="XMLID_55_" x="177.6" y="425.9" class="st5" width="28.1" height="3.8"/>
	<rect id="XMLID_54_" x="177.6" y="441.2" class="st5" width="28.1" height="3.8"/>
	<rect id="XMLID_53_" x="172.6" y="410.8" class="st5" width="32.7" height="3.8"/>
	<rect id="XMLID_60_" x="177.7" y="488.9" class="st5" width="28.1" height="3.8"/>
	<rect id="XMLID_61_" x="177.8" y="474" class="st5" width="28.1" height="3.8"/>
	<rect id="XMLID_59_" x="172.7" y="458.5" class="st5" width="32.7" height="3.8"/>
	<rect id="XMLID_58_" x="177.5" y="519.6" class="st5" width="28.1" height="3.8"/>
	<rect id="XMLID_57_" x="177.5" y="534.8" class="st5" width="28.1" height="3.8"/>
	<rect id="XMLID_56_" x="172.4" y="504.4" class="st5" width="32.7" height="3.8"/>
</g>
<g id="desktop">
	<path id="XMLID_27_" class="st1" d="M331.3,316c0.4-24.2,20.4-43.5,44.6-43.1s43.5,20.4,43.1,44.6c-0.2,10.3-3.9,19.7-10,27.1
		l70.5,0c0.4-1.3,0.7-2.4,0.9-3.3c0.3-1.1-0.2-2.2-1-2.9l-18.6-13.4c-0.7-0.6-1.2-1.3-1.1-2.3l0.2-8.8c0-0.9,0.5-1.7,1.2-2.2
		l19.3-13.5c0.8-0.6,1.3-1.6,1.2-2.5c-1.9-16.1-12.2-33.3-15.4-38.4c-0.6-0.9-1.7-1.3-2.7-1.2l-22.8,3.4c-0.9,0.2-1.7-0.2-2.3-0.8
		l-6.3-6.1c-0.6-0.6-1-1.6-0.7-2.5l5.1-22.5c0.2-1.1-0.2-2.2-1-2.9c-14.4-10.4-32.8-15.7-38.5-17.1c-1.1-0.3-2.2,0.2-2.9,1
		l-14.1,19.7c-0.5,0.7-1.3,1.1-2.2,1.1l-9,0.1c-1,0-1.8-0.5-2.4-1.3l-12.3-20.1c-0.6-1-1.9-1.5-3.1-1.2
		c-22.7,6.2-34.7,13.6-38.5,16.3c-0.9,0.6-1.3,1.6-1.1,2.6l3.4,21.9c0.2,1-0.2,1.8-0.9,2.5l-7.6,6.8c-0.6,0.6-1.6,0.8-2.5,0.6
		l-20.5-4.7c-1.1-0.2-2.3,0.2-2.9,1.3c-11.5,18.4-15.5,33.8-16.6,38.8c-0.2,1,0.2,2.1,1.1,2.8l18.5,13.5c0.7,0.5,1.1,1.3,1.1,2.1
		l0.1,8.2c0,0.9-0.4,1.7-1.1,2.3l-19.3,13.8c-0.9,0.6-1.3,1.6-1.1,2.6c0.3,2.1,0.7,4.2,1.1,6.2l77.5,0
		C334.9,336.9,331.1,326.9,331.3,316z"/>
	<path id="XMLID_6_" class="st0" d="M197.4,537.7V356.3c0-12.5,9.6-22.6,21.2-22.6h478.2c11.7,0,21.2,10.2,21.2,22.6V673
		c0,12.5-9.6,22.6-21.2,22.6H218.3c-11.7,0-21.2-10.2-21.2-22.6L197.4,537.7"/>
	<polygon id="XMLID_3_" class="st0" points="514.2,786.4 378.5,786.4 401,695.6 491.6,695.6 	"/>
	<line id="XMLID_2_" class="st10" x1="331" y1="785.8" x2="557.5" y2="785.8"/>
	<polyline id="XMLID_8_" class="st5" points="695.4,385.4 695.4,645.5 220.2,645.5 220.2,356.7 695.4,356.7 695.4,385.4 	"/>
	<path id="XMLID_11_" class="st5" d="M484.4,678.8h-3.6c-3.8,0-7-3.2-7-7v-3.6c0-3.9,3.1-7,7-7h3.6c3.9,0,7,3.1,7,7v3.6
		C491.4,675.7,488.2,678.8,484.4,678.8z"/>
	<path id="XMLID_7_" class="st5" d="M413.4,678.8h-3.6c-3.8,0-7-3.2-7-7v-3.6c0-3.9,3.2-7,7-7h3.6c3.8,0,7,3.1,7,7v3.6
		C420.4,675.7,417.3,678.8,413.4,678.8z"/>
	<path id="XMLID_10_" class="st5" d="M449.3,678.8h-3.6c-3.9,0-7-3.2-7-7v-3.6c0-3.9,3.1-7,7-7h3.6c3.9,0,7,3.1,7,7v3.6
		C456.3,675.7,453.2,678.8,449.3,678.8z"/>
	<path id="XMLID_28_" class="st2" d="M422.8,498.6H251c-5.9,0-10.7-4.8-10.7-10.7V395c0-5.9,4.8-10.7,10.7-10.7h171.8
		c5.9,0,10.7,4.8,10.7,10.7v92.9C433.5,493.8,428.7,498.6,422.8,498.6z"/>
	<path id="XMLID_35_" class="st3" d="M422.8,619.6H251c-5.9,0-10.7-4.8-10.7-10.7v-83.6c0-5.9,4.8-10.7,10.7-10.7h171.8
		c5.9,0,10.7,4.8,10.7,10.7v83.6C433.5,614.8,428.7,619.6,422.8,619.6z"/>
	<path id="XMLID_29_" class="st11" d="M654,538.3H449.5c-1.1,0-2-0.9-2-2v-10.6c0-1.1,0.9-2,2-2H654c1.1,0,2,0.9,2,2v10.6
		C656,537.4,655.1,538.3,654,538.3z"/>
	<path id="XMLID_32_" class="st11" d="M654,563.3H449.5c-1.1,0-2-0.9-2-2v-10.6c0-1.1,0.9-2,2-2H654c1.1,0,2,0.9,2,2v10.6
		C656,562.4,655.1,563.3,654,563.3z"/>
	<path id="XMLID_34_" class="st11" d="M654,614.3H449.5c-1.1,0-2-0.9-2-2v-10.6c0-1.1,0.9-2,2-2H654c1.1,0,2,0.9,2,2v10.6
		C656,613.4,655.1,614.3,654,614.3z"/>
	<path id="XMLID_33_" class="st11" d="M545.3,589.4h-95.8c-1.1,0-2-0.9-2-2v-10.6c0-1.1,0.9-2,2-2h95.8c1.1,0,2,0.9,2,2v10.6
		C547.3,588.5,546.4,589.4,545.3,589.4z"/>
	<g id="XMLID_31_">
		<text id="XMLID_89_" transform="matrix(1 0 0 1 469.9873 465.8125)" class="st1 st6 st12">Aa</text>
	</g>
</g>
<g id="mobile">
	<path id="XMLID_9_" class="st0" d="M261.3,785.3H154.8c-8.8,0-16-7.2-16-16V562c0-8.8,7.2-16,16-16h106.5c8.8,0,16,7.2,16,16v207.3
		C277.3,778.1,270.1,785.3,261.3,785.3z"/>
	<rect id="XMLID_12_" x="149.2" y="571.2" class="st5" width="118" height="177.5"/>
	<path id="XMLID_13_" class="st5" d="M222,560.3h-26.2c-1.1,0-2-0.9-2-2v-1c0-1.1,0.9-2,2-2H222c1.1,0,2,0.9,2,2v1
		C224,559.4,223.1,560.3,222,560.3z"/>
	<path id="XMLID_14_" class="st5" d="M218.2,762.7h-20.3c-2.2,0-4,1.8-4,4v2.1c0,2.2,1.8,4,4,4h20.3c2.2,0,4-1.8,4-4v-2.1
		C222.2,764.5,220.4,762.7,218.2,762.7z"/>
	<g id="XMLID_15_">
		<g id="XMLID_81_">
			<polyline id="XMLID_90_" class="st13" points="368.4,820.8 368.4,824.3 364.9,824.3 			"/>
			<line id="XMLID_88_" class="st14" x1="358" y1="824.3" x2="56.3" y2="824.3"/>
			<polyline id="XMLID_87_" class="st13" points="52.8,824.3 49.3,824.3 49.3,820.8 			"/>
			<line id="XMLID_86_" class="st14" x1="49.3" y1="813.9" x2="49.3" y2="512.2"/>
			<polyline id="XMLID_85_" class="st13" points="49.3,508.8 49.3,505.3 52.8,505.3 			"/>
			<line id="XMLID_84_" class="st14" x1="59.8" y1="505.3" x2="361.4" y2="505.3"/>
			<polyline id="XMLID_83_" class="st13" points="364.9,505.3 368.4,505.3 368.4,508.8 			"/>
			<line id="XMLID_82_" class="st14" x1="368.4" y1="515.7" x2="368.4" y2="817.4"/>
		</g>
	</g>
	<rect id="XMLID_16_" x="38.4" y="494.4" class="st1" width="24.3" height="24.3"/>
	<rect id="XMLID_20_" x="38.4" y="810.9" class="st1" width="24.3" height="24.3"/>
	<rect id="XMLID_18_" x="355" y="494.4" class="st1" width="24.3" height="24.3"/>
	<rect id="XMLID_19_" x="355" y="812.2" class="st1" width="24.3" height="24.3"/>
	<text id="XMLID_62_" transform="matrix(1 0 0 1 160.9482 685.4365)" class="st1 st6 st15">Aa</text>
	<path id="XMLID_38_" class="st2" d="M252.2,739.9h-88.9c-3.4,0-6.2-2.8-6.2-6.2v-30.4c0-3.4,2.8-6.2,6.2-6.2h88.9
		c3.4,0,6.2,2.8,6.2,6.2v30.4C258.4,737.2,255.6,739.9,252.2,739.9z"/>
</g>
<g id="tab">
	<path id="XMLID_17_" class="st0" d="M988.7,541.4l0.4,232.9c0,5.2-4.2,9.5-9.5,9.5l-321,0.5c-5.2,0-9.5-4.2-9.5-9.5l-0.4-232.9
		c0-5.2,4.2-9.5,9.5-9.5l321-0.5C984.4,531.9,988.7,536.1,988.7,541.4z"/>
	
		<rect id="XMLID_21_" x="709.3" y="522.1" transform="matrix(-1.645953e-003 -1 1 -1.645953e-003 161.4809 1476.7601)" class="st5" width="217.3" height="271.4"/>
	<circle id="XMLID_22_" class="st5" cx="971.6" cy="657.5" r="8.8"/>
	<path id="XMLID_23_" class="st5" d="M667.7,638.6l0.1,38.8c0,1.1-0.9,2-2,2l-1,0c-1.1,0-2-0.9-2-2l-0.1-38.8c0-1.1,0.9-2,2-2l1,0
		C666.8,636.6,667.7,637.5,667.7,638.6z"/>
</g>
<g id="XMLID_25_">
	<circle id="XMLID_24_" class="st16" cx="731.8" cy="419.4" r="75.6"/>
	<path id="XMLID_26_" class="st3" d="M838.2,543.1l14.5-14.6c1.1-1.1,1.1-2.9,0-4l-58.1-57.9c-1.1-1.1-2.9-1.1-4,0l-14.5,14.6
		c-1.1,1.1-1.1,2.9,0,4l58.1,57.9C835.3,544.2,837.1,544.2,838.2,543.1z"/>
	
		<ellipse id="XMLID_30_" transform="matrix(0.6383 -0.7698 0.7698 0.6383 -17.1709 705.6373)" class="st11" cx="742.3" cy="371.1" rx="10.9" ry="13.9"/>
</g>
<g id="squares" class="st17">
	<rect id="XMLID_69_" x="650" y="278.2" class="st18" width="37.8" height="37.8"/>
	<rect id="XMLID_72_" x="921.8" y="471.9" class="st18" width="37.8" height="37.8"/>
	<rect id="XMLID_75_" x="102.3" y="363.8" class="st18" width="37.8" height="37.8"/>
	<rect id="XMLID_71_" x="710.5" y="233.8" class="st18" width="22.1" height="22.1"/>
	<rect id="XMLID_76_" x="61.2" y="304.6" class="st18" width="22.1" height="22.1"/>
	<rect id="XMLID_73_" x="865.9" y="418.7" class="st18" width="22.1" height="22.1"/>
	<rect id="XMLID_74_" x="941.2" y="388" class="st18" width="22.1" height="22.1"/>
</g>
<g id="full_stack">
	<polygon id="XMLID_78_" class="st19" points="823.9,574.1 742.6,611.7 823.9,649.5 905.2,611.8 	"/>
	<polygon id="XMLID_77_" class="st19" points="742.6,657.5 779.8,640.6 823.9,661 867.6,640.6 904.5,657.5 823.9,695 	"/>
	<polygon id="XMLID_70_" class="st19" points="742.6,703.2 779.5,685.9 823.5,706.1 867.9,685.9 904.5,702.9 823.9,740.8 	"/>
</g>
</svg>
